<svg xmlns="http://www.w3.org/2000/svg" xmlns:xlink="http://www.w3.org/1999/xlink" version="1.1" width="612" height="792" viewBox="0 0 612 792">
<g id="layer_1" data-name="Layer 1">
<path transform="matrix(1,0,0,-1,0,792)" d="M304.4514 352.5996V381.2715H275.925V393.2674H304.4514V421.7927H316.5931V393.2674H345.1192V381.2715H316.5931V352.5996Z" fill="#ae9675"/>
<path transform="matrix(1,0,0,-1,0,792)" stroke-width=".216" stroke-linecap="butt" stroke-miterlimit="2.6131259" stroke-linejoin="miter" fill="none" stroke="#ae9675" d="M304.4514 352.5996V381.2715H275.925V393.2674H304.4514V421.7927H316.5931V393.2674H345.1192V381.2715H316.5931V352.5996Z"/>
<path transform="matrix(1,0,0,-1,0,792)" d="M377.5978 420.2631 330.1342 299.5285 288.2367 299.6388 245.283 406.7357C241.9549 411.1821 239.849 412.5223 236.6056 417.8324 220.612 444.0175 191.7102 492.3213 210.695 524.3437 201.0237 522.5936 200.0183 507.1833 194.6055 499.5425L193.9609 515.7371C188.7528 508.8183 187.3539 498.0781 186.9134 487.4111L181.012 500.0837C178.2581 485.1227 179.1071 487.8062 182.0092 472.9822 174.2757 475.7298 176.724 477.8385 171.8237 483.4559 172.0069 468.6299 178.5577 463.032 181.3442 456.7547 174.6641 458.1711 171.1641 464.0882 164.9962 466.0214 167.2569 462.4138 168.5001 458.3177 171.1023 453.8832 174.4713 448.1425 177.1926 448.0917 179.7018 442.929 174.1723 442.8244 170.0249 444.8982 165.3511 446.8192 166.8538 440.3781 175.5071 433.0831 181.7433 429.162L168.3865 429.6915C170.7953 421.9282 178.7953 418.8039 185.3453 413.5618L170.0864 414.2993C177.071 404.7117 179.8855 405.932 190.309 399.9348 184.1678 399.6666 183.0753 400.5677 178.8948 397.902 185.8649 389.2147 186.4655 392.8212 193.9073 387.5014 188.5762 379.3893 190.2475 389.2819 188.9331 378.8393 195.4171 375.5687 197.4311 374.1908 207.1522 373.2639 202.1825 369.8561 202.2182 371.1784 199.6282 365.3671 205.9475 360.326 205.4679 360.4538 216.2866 359.5853 214.5628 352.6617 213.4726 357.332 213.3351 348.0795 218.2584 345.8526 223.3284 344.7295 230.0669 344.0511 227.3372 340.3157 225.8855 340.6966 225.5547 334.3277 231.6059 330.9188 233.3659 331.0801 242.3013 330.8587 231.5758 320.3439 239.8158 319.2525 252.8938 318.602 243.5703 302.7821 256.4921 314.5796 264.0858 300.8024 266.4102 296.5844 263.2329 299.6501 266.7526 296.8186 270.4961 293.8065 278.7503 294.1628 278.9303 291.9926 279.3679 286.7199 284.0423 283.1743 289.4151 279.9768 297.068 275.423 300.5728 270.9264 306.1882 267.6563 311.5698 270.898 314.3137 274.4677 322.0214 279.0933 338.3861 288.9142 330.8114 286.7128 333.7645 292.7889 336.4988 293.6401 339.66 294.2379 342.142 295.105 356.3997 300.0847 340.2913 301.1885 354.4603 306.7464 359.9734 308.9089 356.7648 306.1539 362.9228 310.2194 362.4608 316.1293 362.6614 315.6154 358.5583 318.2927 371.2249 319.8722 379.207 317.3944 371.7842 330.5055 381.9056 331.5759 379.6821 330.4474 386.9484 334.4088 386.5161 340.9319 385.1368 340.0875 382.5096 344.1688 391.7778 344.9129 395.3906 345.9733 400.8172 349.8253 398.6887 357.9146 398.0256 351.8918 396.0017 359.8875 405.2299 360.0371 407.5087 360.1939 412.8814 365.1905 410.6767 372.9223 411.1611 367.9143 406.1356 373.4697 417.5969 374.0587 416.2691 374.0729 423.3036 378.8541 422.1961 388.5817 423.3934 379.3181 419.576 387.5014 426.7176 392.8652 429.01 390.695 433.7668 397.7991 430.7148 399.8117 425.5526 399.8217 422.0535 400.1261 433.3774 405.4139 435.4038 405.5593 442.2178 414.5638L426.966 412.9302C433.067 418.3013 441.6313 422.4129 443.8375 429.9437L432.4864 428.4584C436.3245 434.2825 445.0759 438.3969 447.0038 447.1061L432.93 442.0746C436.3308 448.8386 442.2986 450.6914 445.6942 464.5851 441.1638 462.886 435.5447 458.5612 432.4167 456.3054 433.9517 464.9071 440.8379 469.11 440.0731 481.0408 436.9706 476.9631 434.4528 474.4616 430.5158 471.7735 431.0578 485.0821 436.7996 482.3456 431.8843 500.6628 431.6545 500.3079 431.4237 500.1188 431.346 499.5162L425.397 485.7171C425.1056 498.9291 425.0296 506.9492 418.784 515.52L417.9053 495.9683C415.4496 501.9534 414.6035 516.0305 404.7449 522.6939 405.0655 513.2463 408.8866 503.9235 407.4384 492.673 403.7389 463.9258 392.5199 443.4378 377.5978 420.2631Z" fill="#837258" fill-rule="evenodd"/>
<path transform="matrix(1,0,0,-1,0,792)" stroke-width=".216" stroke-linecap="butt" stroke-miterlimit="2.6131259" stroke-linejoin="miter" fill="none" stroke="#837258" d="M377.5978 420.2631 330.1342 299.5285 288.2367 299.6388 245.283 406.7357C241.9549 411.1821 239.849 412.5223 236.6056 417.8324 220.612 444.0175 191.7102 492.3213 210.695 524.3437 201.0237 522.5936 200.0183 507.1833 194.6055 499.5425L193.9609 515.7371C188.7528 508.8183 187.3539 498.0781 186.9134 487.4111L181.012 500.0837C178.2581 485.1227 179.1071 487.8062 182.0092 472.9822 174.2757 475.7298 176.724 477.8385 171.8237 483.4559 172.0069 468.6299 178.5577 463.032 181.3442 456.7547 174.6641 458.1711 171.1641 464.0882 164.9962 466.0214 167.2569 462.4138 168.5001 458.3177 171.1023 453.8832 174.4713 448.1425 177.1926 448.0917 179.7018 442.929 174.1723 442.8244 170.0249 444.8982 165.3511 446.8192 166.8538 440.3781 175.5071 433.0831 181.7433 429.162L168.3865 429.6915C170.7953 421.9282 178.7953 418.8039 185.3453 413.5618L170.0864 414.2993C177.071 404.7117 179.8855 405.932 190.309 399.9348 184.1678 399.6666 183.0753 400.5677 178.8948 397.902 185.8649 389.2147 186.4655 392.8212 193.9073 387.5014 188.5762 379.3893 190.2475 389.2819 188.9331 378.8393 195.4171 375.5687 197.4311 374.1908 207.1522 373.2639 202.1825 369.8561 202.2182 371.1784 199.6282 365.3671 205.9475 360.326 205.4679 360.4538 216.2866 359.5853 214.5628 352.6617 213.4726 357.332 213.3351 348.0795 218.2584 345.8526 223.3284 344.7295 230.0669 344.0511 227.3372 340.3157 225.8855 340.6966 225.5547 334.3277 231.6059 330.9188 233.3659 331.0801 242.3013 330.8587 231.5758 320.3439 239.8158 319.2525 252.8938 318.602 243.5703 302.7821 256.4921 314.5796 264.0858 300.8024 266.4102 296.5844 263.2329 299.6501 266.7526 296.8186 270.4961 293.8065 278.7503 294.1628 278.9303 291.9926 279.3679 286.7199 284.0423 283.1743 289.4151 279.9768 297.068 275.423 300.5728 270.9264 306.1882 267.6563 311.5698 270.898 314.3137 274.4677 322.0214 279.0933 338.3861 288.9142 330.8114 286.7128 333.7645 292.7889 336.4988 293.6401 339.66 294.2379 342.142 295.105 356.3997 300.0847 340.2913 301.1885 354.4603 306.7464 359.9734 308.9089 356.7648 306.1539 362.9228 310.2194 362.4608 316.1293 362.6614 315.6154 358.5583 318.2927 371.2249 319.8722 379.207 317.3944 371.7842 330.5055 381.9056 331.5759 379.6821 330.4474 386.9484 334.4088 386.5161 340.9319 385.1368 340.0875 382.5096 344.1688 391.7778 344.9129 395.3906 345.9733 400.8172 349.8253 398.6887 357.9146 398.0256 351.8918 396.0017 359.8875 405.2299 360.0371 407.5087 360.1939 412.8814 365.1905 410.6767 372.9223 411.1611 367.9143 406.1356 373.4697 417.5969 374.0587 416.2691 374.0729 423.3036 378.8541 422.1961 388.5817 423.3934 379.3181 419.576 387.5014 426.7176 392.8652 429.01 390.695 433.7668 397.7991 430.7148 399.8117 425.5526 399.8217 422.0535 400.1261 433.3774 405.4139 435.4038 405.5593 442.2178 414.5638L426.966 412.9302C433.067 418.3013 441.6313 422.4129 443.8375 429.9437L432.4864 428.4584C436.3245 434.2825 445.0759 438.3969 447.0038 447.1061L432.93 442.0746C436.3308 448.8386 442.2986 450.6914 445.6942 464.5851 441.1638 462.886 435.5447 458.5612 432.4167 456.3054 433.9517 464.9071 440.8379 469.11 440.0731 481.0408 436.9706 476.9631 434.4528 474.4616 430.5158 471.7735 431.0578 485.0821 436.7996 482.3456 431.8843 500.6628 431.6545 500.3079 431.4237 500.1188 431.346 499.5162L425.397 485.7171C425.1056 498.9291 425.0296 506.9492 418.784 515.52L417.9053 495.9683C415.4496 501.9534 414.6035 516.0305 404.7449 522.6939 405.0655 513.2463 408.8866 503.9235 407.4384 492.673 403.7389 463.9258 392.5199 443.4378 377.5978 420.2631Z"/>
<path transform="matrix(1,0,0,-1,0,792)" d="M309.1844 299.5826 286.302 297.3209 245.2836 406.7357Z" fill="#837258" fill-rule="evenodd"/>
<path transform="matrix(1,0,0,-1,0,792)" stroke-width=".216" stroke-linecap="butt" stroke-miterlimit="2.6131259" stroke-linejoin="miter" fill="none" stroke="#837258" d="M309.1844 299.5826 286.302 297.3209 245.2836 406.7357Z"/>
<path transform="matrix(1,0,0,-1,0,792)" d="M309.1844 299.5826 332.0671 297.3209 373.0856 406.7357Z" fill="#837258" fill-rule="evenodd"/>
<path transform="matrix(1,0,0,-1,0,792)" stroke-width=".216" stroke-linecap="butt" stroke-miterlimit="2.6131259" stroke-linejoin="miter" fill="none" stroke="#837258" d="M309.1844 299.5826 332.0671 297.3209 373.0856 406.7357Z"/>
</g>
</svg>
